<svg width="24" height="24" viewBox="0 0 24 24" fill="none" xmlns="http://www.w3.org/2000/svg">
<g clip-path="url(#clip0_958_1471)">
<path d="M18 5.99988C18 4.40858 17.3679 2.88246 16.2426 1.75724C15.1174 0.632019 13.5913 -0.00012207 12 -0.00012207C10.4087 -0.00012207 8.88258 0.632019 7.75736 1.75724C6.63214 2.88246 6 4.40858 6 5.99988H0V20.9999C0 21.7955 0.31607 22.5586 0.87868 23.1212C1.44129 23.6838 2.20435 23.9999 3 23.9999H21C21.7956 23.9999 22.5587 23.6838 23.1213 23.1212C23.6839 22.5586 24 21.7955 24 20.9999V5.99988H18ZM12 1.99988C13.0609 1.99988 14.0783 2.42131 14.8284 3.17145C15.5786 3.9216 16 4.93901 16 5.99988H8C8 4.93901 8.42143 3.9216 9.17157 3.17145C9.92172 2.42131 10.9391 1.99988 12 1.99988ZM22 20.9999C22 21.2651 21.8946 21.5194 21.7071 21.707C21.5196 21.8945 21.2652 21.9999 21 21.9999H3C2.73478 21.9999 2.48043 21.8945 2.29289 21.707C2.10536 21.5194 2 21.2651 2 20.9999V7.99988H6V9.99988H8V7.99988H16V9.99988H18V7.99988H22V20.9999Z" fill="#9B8963"/>
</g>
<defs>
<clipPath id="clip0_958_1471">
<rect width="24" height="24" fill="white"/>
</clipPath>
</defs>
</svg>
