<svg width="19" height="18" viewBox="0 0 19 18" fill="none" xmlns="http://www.w3.org/2000/svg">
<path fill-rule="evenodd" clip-rule="evenodd" d="M9.50013 12.7335C11.562 12.7335 13.2335 11.062 13.2335 9.00013C13.2335 6.93827 11.562 5.2668 9.50013 5.2668C7.43827 5.2668 5.7668 6.93827 5.7668 9.00013C5.7668 11.062 7.43827 12.7335 9.50013 12.7335ZM9.50013 11.6668C10.9729 11.6668 12.1668 10.4729 12.1668 9.00013C12.1668 7.52737 10.9729 6.33346 9.50013 6.33346C8.02737 6.33346 6.83346 7.52737 6.83346 9.00013C6.83346 10.4729 8.02737 11.6668 9.50013 11.6668Z" fill="#9F8652"/>
<path d="M14.3001 5.2668C14.5947 5.2668 14.8335 5.02802 14.8335 4.73346C14.8335 4.43891 14.5947 4.20013 14.3001 4.20013C14.0056 4.20013 13.7668 4.43891 13.7668 4.73346C13.7668 5.02802 14.0056 5.2668 14.3001 5.2668Z" fill="#9F8652"/>
<path fill-rule="evenodd" clip-rule="evenodd" d="M5.7668 0.466797C3.11583 0.466797 0.966797 2.61583 0.966797 5.2668V12.7335C0.966797 15.3844 3.11583 17.5335 5.7668 17.5335H13.2335C15.8844 17.5335 18.0335 15.3844 18.0335 12.7335V5.2668C18.0335 2.61583 15.8844 0.466797 13.2335 0.466797H5.7668ZM13.2335 1.53346H5.7668C3.70493 1.53346 2.03346 3.20493 2.03346 5.2668V12.7335C2.03346 14.7953 3.70493 16.4668 5.7668 16.4668H13.2335C15.2953 16.4668 16.9668 14.7953 16.9668 12.7335V5.2668C16.9668 3.20493 15.2953 1.53346 13.2335 1.53346Z" fill="#9F8652"/>
</svg>
