<svg width="17" height="20" viewBox="0 0 17 20" fill="none" xmlns="http://www.w3.org/2000/svg">
<path fill-rule="evenodd" clip-rule="evenodd" d="M11.1198 4.77775C12.447 5.77464 13.7015 6.84297 15.3792 7.17316V6.16794C13.2253 5.65394 11.5584 3.8568 11.1941 1.68033H10.1268C10.0974 4.21141 10.1109 6.73646 10.1245 9.2712C10.1321 10.7004 10.1398 12.1326 10.1398 13.5708C10.1398 15.6526 8.45211 17.3403 6.37029 17.3403C4.28846 17.3403 2.6008 15.6526 2.6008 13.5708C2.6008 11.6196 4.0833 10.0147 5.98335 9.82093V8.8368C3.54123 9.0337 1.62076 11.078 1.62076 13.5708C1.62076 16.1939 3.74719 18.3203 6.37029 18.3203C8.99338 18.3203 11.1198 16.1939 11.1198 13.5708V4.77775ZM13.1465 7.44792C13.9673 7.88006 14.8778 8.1648 15.8429 8.26694C16.1426 8.29867 16.3926 8.05525 16.3926 7.75386V5.80041C16.3926 5.51719 16.17 5.28682 15.8909 5.23893C13.9035 4.89788 12.3499 3.21741 12.1541 1.21463C12.1248 0.915805 11.887 0.666992 11.5868 0.666992H9.65215C9.36099 0.666992 9.12358 0.900493 9.11956 1.19162C9.08236 3.89061 9.09678 6.59088 9.1112 9.29087C9.11882 10.7177 9.12644 12.1444 9.12644 13.5708C9.12644 15.093 7.89247 16.3269 6.37029 16.3269C4.8481 16.3269 3.61413 15.093 3.61413 13.5708C3.61413 12.0486 4.8481 10.8146 6.37029 10.8146C6.69333 10.8146 6.99668 10.5773 6.99668 10.2543V8.32037C6.99668 7.94864 6.68854 7.80793 6.37029 7.80793C3.18754 7.80793 0.607422 10.3881 0.607422 13.5708C0.607422 16.7535 3.18754 19.3337 6.37029 19.3337C9.55303 19.3337 12.1331 16.7535 12.1331 13.5708V6.80624C12.4522 7.04589 12.7909 7.26073 13.1465 7.44792Z" fill="#9F8652"/>
</svg>
