<svg width="20" height="20" viewBox="0 0 20 20" fill="none" xmlns="http://www.w3.org/2000/svg">
<path fill-rule="evenodd" clip-rule="evenodd" d="M19.0358 10.0003C19.0358 15.155 14.8571 19.3337 9.70247 19.3337C4.54782 19.3337 0.369141 15.155 0.369141 10.0003C0.369141 4.84567 4.54782 0.666992 9.70247 0.666992C14.8571 0.666992 19.0358 4.84567 19.0358 10.0003ZM8.60627 18.2488V14.3796H6.54855C6.51909 14.3796 6.49521 14.3557 6.49521 14.3262V11.6615C6.49521 11.632 6.51909 11.6081 6.54855 11.6081H8.60627V10.1398C8.60627 7.74489 11.037 6.89786 12.1189 6.89786H13.6759C13.7054 6.89786 13.7293 6.92174 13.7293 6.95119V9.33005C13.7293 9.35951 13.7054 9.38338 13.6759 9.38338H12.7062C12.3063 9.38338 11.3582 9.75298 11.3582 10.4647V11.6081H13.6757C13.7076 11.6081 13.7324 11.636 13.7287 11.6677L13.417 14.3324C13.4138 14.3593 13.3911 14.3796 13.364 14.3796H11.3582V18.1556C15.16 17.3879 18.0225 14.0284 18.0225 10.0003C18.0225 5.40532 14.2975 1.68033 9.70247 1.68033C5.10746 1.68033 1.38247 5.40532 1.38247 10.0003C1.38247 14.2237 4.52935 17.7122 8.60627 18.2488ZM9.4596 18.2368V13.5262H7.34855V12.4615H9.4596V10.1398C9.4596 9.28163 9.87641 8.71189 10.4405 8.32376C11.0382 7.91259 11.747 7.75119 12.1189 7.75119H12.8759V8.53005C12.3585 8.53005 11.8683 8.65655 11.4264 8.93578C11.026 9.18877 10.5049 9.6866 10.5049 10.4647V12.4615H12.7767L12.6521 13.5262H10.5049V18.2368H9.4596Z" fill="#9F8652"/>
</svg>
