<svg width="21" height="15" viewBox="0 0 21 15" fill="none" xmlns="http://www.w3.org/2000/svg">
<path fill-rule="evenodd" clip-rule="evenodd" d="M8.4784 4.89599C8.4784 4.60859 8.78951 4.42897 9.0384 4.57267L13.0906 6.91219C13.3395 7.05588 13.3395 7.41512 13.0906 7.55882L9.0384 9.89834C8.78951 10.042 8.4784 9.86242 8.4784 9.57502V4.89599ZM12.0506 7.23551L9.2784 8.83602V5.63499L12.0506 7.23551Z" fill="#9F8652"/>
<path fill-rule="evenodd" clip-rule="evenodd" d="M17.7095 13.9011C19.1068 13.7797 20.2422 12.7201 20.3998 11.3264C20.5525 9.97645 20.6329 8.57444 20.6329 7.13617C20.6329 5.69791 20.5525 4.2959 20.3998 2.94599C20.2422 1.55226 19.1068 0.492645 17.7095 0.371229C15.4283 0.173012 13.0075 0.0664062 10.4995 0.0664062C7.99157 0.0664062 5.57076 0.17301 3.28958 0.371223C1.89225 0.492638 0.75687 1.55226 0.599275 2.94598C0.446635 4.29589 0.366211 5.69791 0.366211 7.13617C0.366211 8.57444 0.446635 9.97645 0.599275 11.3264C0.756869 12.7201 1.89225 13.7797 3.28958 13.9011C5.57076 14.0993 7.99157 14.2059 10.4995 14.2059C13.0075 14.2059 15.4283 14.0993 17.7095 13.9011ZM19.5662 7.13617C19.5662 8.53482 19.488 9.89682 19.3399 11.2065C19.242 12.0728 18.5321 12.759 17.6172 12.8385C15.3676 13.0339 12.9776 13.1393 10.4995 13.1393C8.02147 13.1393 5.63149 13.0339 3.38192 12.8385C2.467 12.759 1.75714 12.0728 1.65919 11.2065C1.51109 9.89682 1.43288 8.53483 1.43288 7.13617C1.43288 5.73752 1.51109 4.37553 1.65919 3.06583C1.75714 2.19957 2.467 1.51338 3.38192 1.43389C5.63149 1.23842 8.02147 1.13307 10.4995 1.13307C12.9776 1.13307 15.3676 1.23842 17.6172 1.43389C18.5321 1.51339 19.242 2.19957 19.3399 3.06583C19.488 4.37553 19.5662 5.73753 19.5662 7.13617Z" fill="#9F8652"/>
</svg>
